
		<svg xmlns="http://www.w3.org/2000/svg" xmlns:xlink="http://www.w3.org/1999/xlink" version="1.1" width="3149.2537313432836" height="1194.0298507462687">
			<rect fill="#921a0f" width="3149.2537313432836" height="1194.0298507462687"/>
			<g transform="scale(7.462686567164179) translate(10, 10)">
				<defs id="SvgjsDefs1178"></defs><g id="SvgjsG1179" featureKey="root" fill="#921a0f"></g><g id="SvgjsG1180" featureKey="symbol1" fill="#36cfda" transform="matrix(2.5541619156214366,0,0,2.5541619156214366,159.53477886900254,-5.267958950969213)"><g xmlns="http://www.w3.org/2000/svg" transform="translate(0,-1020.3622)"><path style="text-indent:0;text-transform:none;direction:ltr;block-progression:tb;baseline-shift:baseline;color:;enable-background:accumulate;" d="M 29.9375,2.0625 C 29.872251,4.2667951 29.450771,6.3418208 28.75,8.25 l -5,-5 c 1.911127,-0.7111495 3.977299,-1.120596 6.1875,-1.1875 z m -7.1875,1.59375 5.625,5.625 -0.4375,0.84375 -6.0625,-6 C 22.381456,3.8325975 22.448881,3.8202794 22.75,3.65625 z m -1.78125,1 6.46875,6.375 c -2.830401,4.771453 -7.299899,8.365436 -11.78125,10.65625 -0.580619,0.290463 -1.16634,0.577289 -1.78125,0.84375 -0.100865,0.04394 -0.211884,0.08243 -0.3125,0.125 l -4.21875,-4.25 c 2.171923,-5.123512 6.1148,-10.4944493 11.625,-13.75 z m -0.5,4.84375 c -0.569578,0 -1.13277,0.22655 -1.5625,0.65625 -0.85946,0.8595 -0.859418,2.2655 0,3.125 0.859418,0.8594 2.26554,0.8595 3.125,0 0.85946,-0.8594 0.859418,-2.2656 0,-3.125 C 21.601542,9.72655 21.038328,9.5 20.46875,9.5 z m 0,1 c 0.311562,0 0.636351,0.1051 0.875,0.34375 0.477297,0.4773 0.477283,1.24145 0,1.71875 -0.477297,0.4773 -1.272703,0.4773 -1.75,0 -0.477297,-0.4773 -0.477297,-1.24145 0,-1.71875 C 19.832391,10.6051 20.157188,10.5 20.46875,10.5 z m -9.78125,0.34375 c 0.563142,0.0073 1.105905,0.1466 1.625,0.3125 -0.388539,0.533307 -0.756648,1.113338 -1.125,1.6875 -0.241783,0.368617 -0.494814,0.751967 -0.71875,1.125 C 10.132308,14.541336 9.8117331,15.139854 9.5,15.75 9.2828708,16.167914 9.1010643,16.582241 8.90625,17 8.890322,17.03455 8.859592,17.05908 8.84375,17.09375 8.1183895,16.31415 7.1950438,15.8643 6.03125,16.0625 c -1.0029276,0.1708 -2.1958545,0.81315 -3.5,1.65625 1.2874967,-2.2982 2.8033578,-4.2718 4.46875,-5.4375 1.0574657,-0.7401 2.1189101,-1.22435 3.125,-1.40625 0.195778,-0.0354 0.374786,-0.03369 0.5625,-0.03125 z m 10.15625,8.84375 c 0.503374,1.5806 0.190269,3.4334 -1.125,5.3125 -1.16664,1.6668 -3.136575,3.18065 -5.4375,4.46875 0.846071,-1.3076 1.485081,-2.4951 1.65625,-3.5 0.196833,-1.1557 -0.263249,-2.0882 -1.03125,-2.8125 0.53988,-0.249135 1.083499,-0.495058 1.625,-0.78125 0.5227,-0.272187 1.006006,-0.553575 1.5,-0.84375 0.947884,-0.564325 1.898694,-1.166443 2.8125,-1.84375 z m -12.5876248,0.506376 3.2499998,3.21875 -0.71875,0.4375 -2.9374998,-2.90625 z m -1.875,2.75 -2.375,2.375 0.5,0.46875 2.34375,-2.375 z m 0.96875,0.9375 -3.8125,3.8125 0.46875,0.46875 3.8125,-3.8125 z m 0.9375,0.96875 -2.84375,2.84375 0.46875,0.46875 2.84375,-2.84375 z m -4.75,0.9375 -0.46875,0.46875 0.46875,0.46875 0.46875,-0.46875 z m -0.46875,2.375 -0.46875,0.46875 0.46875,0.46875 0.46875,-0.46875 z m 1.90625,0 -0.46875,0.46875 0.46875,0.46875 0.46875,-0.46875 z" transform="translate(-5e-7,1020.3622)" fill="#36cfda" fill-opacity="1" stroke="none" marker="none" visibility="visible" display="inline" overflow="visible"></path></g></g><g id="SvgjsG1181" featureKey="text1" fill="#36cfda" transform="matrix(3.7881639718629803,0,0,3.7881639718629803,-8.106671297180993,47.87636764001109)"><path d="M2.14 12.98 q1.2 -0.42 2.14 -1.07 t1.86 -1.77 l0.92 0 l0 13.86 l-1.3 0 l0 -11.88 q-0.22 0.24 -0.57 0.5 t-0.79 0.51 t-0.92 0.48 t-0.96 0.37 z M16.919999999999998 24.3 q-0.98 0 -1.77 -0.28 t-1.36 -0.79 t-0.88 -1.2 t-0.31 -1.51 q0 -0.7 0.2 -1.27 t0.53 -1.02 t0.76 -0.8 t0.91 -0.61 q-1.22 -0.6 -1.66 -1.42 t-0.44 -1.78 q0 -0.86 0.3 -1.56 t0.83 -1.19 t1.27 -0.76 t1.62 -0.27 q1.04 0 1.8 0.31 t1.25 0.81 t0.72 1.14 t0.23 1.32 q0 0.66 -0.2 1.21 t-0.52 1 t-0.72 0.79 t-0.78 0.58 q1.4 0.6 1.97 1.5 t0.57 1.9 q0 0.86 -0.31 1.58 t-0.87 1.23 t-1.36 0.8 t-1.78 0.29 z M19.86 20.52 q0 -0.86 -0.33 -1.4 t-0.86 -0.88 t-1.2 -0.54 t-1.35 -0.42 q-1.02 0.48 -1.58 1.29 t-0.56 1.95 q0 0.56 0.18 1.04 t0.55 0.84 t0.92 0.57 t1.29 0.21 t1.29 -0.21 t0.92 -0.57 t0.55 -0.84 t0.18 -1.04 z M14.26 13.48 q0 0.56 0.13 1.02 t0.49 0.83 t1 0.68 t1.68 0.59 q0.92 -0.52 1.46 -1.28 t0.54 -1.9 q0 -0.46 -0.15 -0.9 t-0.46 -0.79 t-0.81 -0.56 t-1.22 -0.21 q-0.66 0 -1.16 0.2 t-0.83 0.55 t-0.5 0.81 t-0.17 0.96 z M23.74 17.08 q0 -3.52 1.16 -5.38 t3.3 -1.86 q2.12 0 3.29 1.86 t1.17 5.38 q0 3.5 -1.17 5.36 t-3.29 1.86 t-3.29 -1.86 t-1.17 -5.36 z M31.24 17.08 q0 -1.2 -0.15 -2.29 t-0.51 -1.93 t-0.94 -1.34 t-1.44 -0.5 q-0.88 0 -1.46 0.5 t-0.93 1.34 t-0.5 1.93 t-0.15 2.29 t0.15 2.29 t0.5 1.92 t0.93 1.33 t1.46 0.5 q0.86 0 1.44 -0.5 t0.94 -1.33 t0.51 -1.92 t0.15 -2.29 z M46.64 17.06 q0 1.78 -0.56 3.1 t-1.57 2.2 t-2.41 1.32 t-3.08 0.44 q-0.84 0 -1.76 -0.09 t-1.62 -0.27 l0 -13.36 q0.7 -0.2 1.62 -0.29 t1.76 -0.09 q1.68 0 3.08 0.44 t2.41 1.32 t1.57 2.2 t0.56 3.08 z M37 22.8 q0.12 0.02 0.61 0.08 t1.57 0.06 q1.5 0 2.62 -0.41 t1.88 -1.17 t1.14 -1.85 t0.38 -2.45 t-0.38 -2.44 t-1.14 -1.84 t-1.88 -1.17 t-2.62 -0.41 q-1.08 0 -1.57 0.06 t-0.61 0.08 l0 11.46 z M48.98 18.82 q0 -1.36 0.39 -2.37 t1.02 -1.69 t1.44 -1.01 t1.67 -0.33 q1.9 0 3.03 1.24 t1.13 3.82 q0 0.16 -0.01 0.32 t-0.03 0.3 l-7.26 0 q0.06 1.9 0.94 2.92 t2.8 1.02 q1.06 0 1.68 -0.2 t0.9 -0.34 l0.24 1.12 q-0.28 0.16 -1.05 0.38 t-1.81 0.22 q-1.36 0 -2.32 -0.4 t-1.58 -1.12 t-0.9 -1.71 t-0.28 -2.17 z M56.31999999999999 18 q-0.04 -1.62 -0.76 -2.52 t-2.04 -0.9 q-0.7 0 -1.25 0.28 t-0.96 0.75 t-0.64 1.09 t-0.27 1.3 l5.92 0 z M64.84 24.22 q-1.2 0 -2.12 -0.38 t-1.53 -1.09 t-0.93 -1.7 t-0.32 -2.19 q0 -1.22 0.33 -2.22 t0.95 -1.72 t1.5 -1.11 t1.98 -0.39 q0.84 0 1.57 0.14 t1.13 0.36 l-0.34 1.12 q-0.4 -0.2 -0.9 -0.32 t-1.34 -0.12 q-1.72 0 -2.61 1.11 t-0.89 3.15 q0 0.92 0.2 1.69 t0.65 1.32 t1.16 0.86 t1.73 0.31 q0.84 0 1.41 -0.19 t0.83 -0.33 l0.28 1.12 q-0.36 0.2 -1.13 0.39 t-1.61 0.19 z M71.05999999999999 24 l-1.3 0 l0 -10.34 l1.3 0 l0 10.34 z M71.35999999999999 10.54 q0 0.46 -0.28 0.73 t-0.68 0.27 t-0.68 -0.27 t-0.28 -0.73 t0.28 -0.73 t0.68 -0.27 t0.68 0.27 t0.28 0.73 z M75.79999999999998 14.28 q0.34 -0.26 1.09 -0.55 t1.77 -0.29 q1.12 0 1.99 0.4 t1.47 1.12 t0.91 1.71 t0.31 2.17 q0 1.26 -0.37 2.26 t-1.04 1.7 t-1.6 1.07 t-2.07 0.37 q-1.38 0 -2.28 -0.18 t-1.48 -0.38 l0 -14.96 l1.3 -0.24 l0 5.8 z M75.79999999999998 22.78 q0.3 0.1 0.89 0.19 t1.55 0.09 q1.68 0 2.7 -1.09 t1.02 -3.13 q0 -0.86 -0.18 -1.63 t-0.58 -1.34 t-1.05 -0.91 t-1.61 -0.34 q-0.46 0 -0.88 0.09 t-0.78 0.23 t-0.63 0.3 t-0.45 0.3 l0 7.24 z M85.53999999999998 18.82 q0 -1.36 0.39 -2.37 t1.02 -1.69 t1.44 -1.01 t1.67 -0.33 q1.9 0 3.03 1.24 t1.13 3.82 q0 0.16 -0.01 0.32 t-0.03 0.3 l-7.26 0 q0.06 1.9 0.94 2.92 t2.8 1.02 q1.06 0 1.68 -0.2 t0.9 -0.34 l0.24 1.12 q-0.28 0.16 -1.05 0.38 t-1.81 0.22 q-1.36 0 -2.32 -0.4 t-1.58 -1.12 t-0.9 -1.71 t-0.28 -2.17 z M92.87999999999998 18 q-0.04 -1.62 -0.76 -2.52 t-2.04 -0.9 q-0.7 0 -1.25 0.28 t-0.96 0.75 t-0.64 1.09 t-0.27 1.3 l5.92 0 z M99.73999999999998 24.18 q-0.66 -0.02 -1.15 -0.17 t-0.82 -0.46 t-0.5 -0.8 t-0.17 -1.23 l0 -12.8 l1.3 -0.24 l0 13 q0 0.48 0.09 0.77 t0.27 0.46 t0.47 0.25 t0.69 0.14 z M104.33999999999997 23.08 q1.12 0 1.85 -0.37 t0.73 -1.25 q0 -0.42 -0.13 -0.72 t-0.43 -0.54 t-0.79 -0.46 t-1.21 -0.52 q-0.58 -0.24 -1.1 -0.49 t-0.92 -0.58 t-0.64 -0.79 t-0.24 -1.12 q0 -1.26 0.95 -2.04 t2.61 -0.78 q1.06 0 1.75 0.18 t0.97 0.32 l-0.3 1.16 q-0.24 -0.12 -0.81 -0.32 t-1.67 -0.2 q-0.44 0 -0.83 0.09 t-0.69 0.28 t-0.48 0.48 t-0.18 0.71 t0.16 0.72 t0.47 0.53 t0.76 0.43 t1.03 0.44 q0.6 0.24 1.15 0.49 t0.97 0.6 t0.68 0.84 t0.26 1.23 q0 1.4 -1.05 2.12 t-2.87 0.72 q-1.36 0 -2.08 -0.23 t-0.96 -0.35 l0.34 -1.18 q0.06 0.04 0.26 0.13 t0.54 0.2 t0.81 0.19 t1.09 0.08 z"></path></g>
			</g>
		</svg>
	